<?xml version="1.0" encoding="UTF-8" standalone="no"?>
<!-- Created with Inkscape (http://www.inkscape.org/) -->

<svg
   xmlns:osb="http://www.openswatchbook.org/uri/2009/osb"
   xmlns:dc="http://purl.org/dc/elements/1.1/"
   xmlns:cc="http://creativecommons.org/ns#"
   xmlns:rdf="http://www.w3.org/1999/02/22-rdf-syntax-ns#"
   xmlns:svg="http://www.w3.org/2000/svg"
   xmlns="http://www.w3.org/2000/svg"
   xmlns:sodipodi="http://sodipodi.sourceforge.net/DTD/sodipodi-0.dtd"
   xmlns:inkscape="http://www.inkscape.org/namespaces/inkscape"
   width="744.09448819"
   height="1052.3622047"
   id="svg3945"
   version="1.1"
   inkscape:version="0.48.4 r9939"
   sodipodi:docname="niceOtter2.svg">
  <defs
     id="defs3947">
    <linearGradient
       id="linearGradient5831"
       osb:paint="solid">
      <stop
         style="stop-color:#000000;stop-opacity:1;"
         offset="0"
         id="stop5833" />
    </linearGradient>
  </defs>
  <sodipodi:namedview
     id="base"
     pagecolor="#ffffff"
     bordercolor="#666666"
     borderopacity="1.0"
     inkscape:pageopacity="0.0"
     inkscape:pageshadow="2"
     inkscape:zoom="0.7"
     inkscape:cx="-108.12606"
     inkscape:cy="613.03293"
     inkscape:document-units="px"
     inkscape:current-layer="layer1"
     showgrid="false"
     inkscape:window-width="1538"
     inkscape:window-height="878"
     inkscape:window-x="54"
     inkscape:window-y="-8"
     inkscape:window-maximized="1"
     inkscape:snap-global="false"
     inkscape:snap-bbox="true"
     inkscape:bbox-nodes="true"
     inkscape:snap-bbox-midpoints="true"
     inkscape:object-nodes="true">
    <inkscape:grid
       type="xygrid"
       id="grid3787" />
  </sodipodi:namedview>
  <metadata
     id="metadata3950">
    <rdf:RDF>
      <cc:Work
         rdf:about="">
        <dc:format>image/svg+xml</dc:format>
        <dc:type
           rdf:resource="http://purl.org/dc/dcmitype/StillImage" />
        <dc:title />
      </cc:Work>
    </rdf:RDF>
  </metadata>
  <g
     inkscape:label="Layer 1"
     inkscape:groupmode="layer"
     id="layer1">
    <path
       style="fill:#ffffff;stroke:#000000;stroke-width:4;stroke-linecap:butt;stroke-linejoin:miter;stroke-miterlimit:4;stroke-opacity:1;stroke-dasharray:none;fill-opacity:1"
       d="m 317.14289,548.07627 c 99.4113,0 180,-80.58885 180,-180.00005 0,-99.41125 -80.5887,-180 -180,-180 -99.41132,0 -180.00002,80.58875 -180.00002,180 l 179.10942,180.00005 c 0.3022,10e-4 0.5883,0 0.8906,0 z"
       id="path3791-1"
       inkscape:connector-curvature="0" />
    <path
       style="fill:#000000;stroke:#000000;stroke-width:1.1;stroke-miterlimit:4;stroke-opacity:1;stroke-dasharray:none;stroke-linejoin:round;stroke-linecap:round"
       d="m 333.50893,286.22321 c -8.52499,0.13153 -17.32816,0.9262 -25.5,2.40625 -29.52058,5.34662 -53.50537,12.29278 -69.5,20.125 -8.0721,3.95273 -12.12069,6.8317 -21,14.84375 -15.03795,13.56918 -21.52868,20.9123 -56.5,64.1875 -0.49611,0.61392 -0.8288,1.02645 -1.3125,1.625 l 2.375,2.34375 c 18.39188,-22.81352 37.48862,-45.70719 42.4375,-50.875 14.00381,-14.62334 26.11659,-24.78836 34.03125,-28.5625 16.57782,-7.90521 42.88797,-15.32333 71.25,-20.09375 20.42287,-3.43507 37.88682,-3.15746 54.71875,0.84375 6.05,1.43818 13.97049,2.87665 17.59375,3.21875 6.44785,0.60881 7.96192,1.29415 15.8125,7.03125 4.46123,3.2602 12.0906,5.4582 19.03125,5.5 l 5.5625,0.0312 -3.78125,3.09375 c -5.63971,4.60657 -6.37865,6.53763 -3.625,9.46875 1.36958,1.45781 1.90831,2.73603 1.34375,3.25 -0.51522,0.46905 -5.2125,2.14134 -10.4375,3.6875 -16.45427,4.86906 -23.22325,9.17132 -27.5625,17.5625 -0.81915,1.58407 -1.91295,2.875 -2.4375,2.875 -0.52454,0 -2.80208,-1.98789 -5.03125,-4.40625 -4.61687,-5.00871 -9.25369,-7.08975 -25.59375,-11.5625 -21.09633,-5.77468 -39.70216,-6.71317 -50.8125,-2.53125 -15.86708,5.97235 -21.64366,10.4334 -60.15625,46.1875 l -13.65625,12.65625 -10.28125,21.09375 c -2.96899,6.08434 -6.48185,13.46034 -9.75,20.375 l 1.625,1.6875 c 0.29741,-0.65651 0.92268,-1.97913 1.15625,-2.5 2.58965,-5.775 8.05503,-17.11331 12.15625,-25.21875 l 7.4375,-14.75 17.21875,-15.8125 c 33.26315,-30.59305 36.4321,-33.20595 46.3125,-37.84375 13.68285,-6.42265 16.12606,-6.84293 32.15625,-5.46875 15.35418,1.31624 22.40867,2.73028 36.21875,7.25 8.24414,2.69812 10.13579,3.78296 14.34375,8.09375 2.66694,2.7321 5.95478,7.4859 7.3125,10.59375 9.5255,21.8039 9.40201,21.67719 21.28125,22.78125 3.9097,0.36337 7.34717,1.05045 7.625,1.5 0.27784,0.44955 -8.84857,7.07439 -20.28125,14.71875 -37.77565,25.25835 -52.78736,38.56306 -65.5625,58.15625 -9.43028,14.46319 -25.32019,42.25062 -35.28125,60.96875 l 2.53125,2.5625 c 14.72902,-27.42465 29.55912,-52.98355 38.25,-65.75 10.58474,-15.54843 29.26092,-31.51599 62.78125,-53.75 8.525,-5.65462 17.525,-11.73734 20,-13.5 2.475,-1.76266 7.324,-4.23448 10.78125,-5.5 3.45725,-1.26553 9.53225,-4.60414 13.5,-7.40625 3.96775,-2.80212 9.46875,-6.12544 12.21875,-7.40625 6.02197,-2.8047 11.8922,-8.28133 14.75,-13.71875 1.67334,-3.1838 2.12815,-5.83644 2.15625,-13 0.0372,-9.472 -0.59248,-11.30595 -6.90625,-20.5 -7.98836,-11.63256 -8.85119,-12 -28.71875,-12 -18.16818,0 -23.12388,-1.13415 -30.125,-6.9375 -4.76906,-3.95315 -6.05706,-4.38764 -16.5625,-5.5625 -2.96442,-0.33153 -10.16442,-1.79148 -16,-3.25 -8.14534,-2.03583 -18.63305,-2.98162 -29.59375,-2.8125 z m 30.84375,15.65625 c -5.66514,-0.0797 -11.51639,1.88798 -18.34375,5.90625 -4.56346,2.68584 -10.035,5.17287 -12.15625,5.53125 -2.12124,0.35838 -4.13617,1.13007 -4.5,1.71875 -1.24362,2.01222 8.8075,-0.16795 13.5625,-2.9375 11.50198,-6.69931 15.39268,-8.3125 20.0625,-8.3125 6.17158,0 10.25006,1.47891 17.375,6.28125 5.66916,3.8211 14.87974,6.51199 13.25,3.875 -0.39166,-0.63371 -1.75266,-1.15625 -3.03125,-1.15625 -1.27859,0 -5.31388,-2.01885 -8.9375,-4.5 -6.13495,-4.20069 -11.61611,-6.32652 -17.28125,-6.40625 z m -100.96875,6.0625 c -0.51125,0.007 -1.04126,0.001 -1.5625,0.0312 -5.00368,0.28826 -5.37176,0.52267 -7.5,4.3125 -3.64432,6.48956 -3.85461,11.07304 -0.90625,20.40625 1.42505,4.51108 2.59375,8.99139 2.59375,9.96875 0,0.97736 -2.69015,5.64476 -5.96875,10.34375 -3.27859,4.69899 -5.68901,8.81099 -5.34375,9.15625 0.96166,0.96166 0.77478,1.16757 7.21875,-8.09375 3.3386,-4.79826 6.09375,-9.75657 6.09375,-11 0,-1.24343 -1.10288,-6.01949 -2.4375,-10.625 -1.85853,-6.41338 -2.23742,-9.23978 -1.59375,-12.09375 2.20537,-9.77829 4.15627,-11.30481 13.0625,-10.25 7.02243,0.8317 10.06354,2.80107 15.84375,10.15625 2.82516,3.59494 5.87028,6.53125 6.75,6.53125 1.16295,0 0.66633,-1.04895 -1.78125,-3.875 -1.8515,-2.1378 -4.84473,-5.74618 -6.65625,-8 -3.66506,-4.55993 -10.14379,-7.06678 -17.8125,-6.96875 z m 168.1875,0.84375 c 4.41107,0 12.92589,2.2386 14.78125,3.875 1.02102,0.90053 2.76129,3.37907 3.84375,5.5 l 1.9375,3.84375 -2.1875,2.34375 c -1.21077,1.28881 -4.16328,3.27848 -6.5625,4.40625 -2.39922,1.12776 -5.38151,2.04125 -6.625,2.03125 -4.34288,-0.0348 -19.75,-9.76739 -19.75,-12.46875 0,-1.8823 11.68634,-9.53125 14.5625,-9.53125 z m -66.6875,2.125 c -3.39287,0.15816 -7.10533,2.0272 -11.15625,5.625 -2.8752,2.55358 -5.21875,5.00858 -5.21875,5.46875 0,0.46016 2.7,2.38888 6,4.28125 8.36206,4.79519 11.42148,4.62537 20.3125,-1.15625 3.94435,-2.56492 7.1875,-4.9931 7.1875,-5.375 0,-0.91168 -10.84028,-7.51484 -13.84375,-8.4375 -1.06457,-0.32703 -2.15029,-0.45897 -3.28125,-0.40625 z m -99.6875,1.3125 c -1.43324,-0.0309 -2.40752,0.68877 -3.8125,2.09375 -2.34133,2.34134 -2.55754,3.15106 -2,7.21875 0.72965,5.32335 4.4652,12.21037 8.25,15.1875 3.2151,2.52936 2.88121,2.52624 6.96875,0 4.90139,-3.02923 7.68916,-7.3277 6.9375,-10.75 -0.83846,-3.81749 -5.75172,-9.58829 -9.75,-11.4375 -3.25512,-1.50549 -5.16051,-2.28159 -6.59375,-2.3125 z m 99.3125,2.53125 c 2.78216,-0.0907 5.67182,0.60885 8.125,2.125 1.85241,1.14486 3.375,2.45294 3.375,2.90625 0,0.45332 -2.11821,2.20442 -4.6875,3.90625 -2.5693,1.70183 -5.8318,3.0751 -7.25,3.0625 -3.11252,-0.0277 -10.0625,-3.86553 -10.0625,-5.5625 0,-0.66801 1.3703,-2.3886 3.0625,-3.8125 1.97342,-1.66053 4.65534,-2.53426 7.4375,-2.625 z m -100.125,1.0625 c 0.21829,-0.0155 0.46696,-0.002 0.75,0 3.9409,0.0273 10.0349,4.17354 12.15625,8.28125 l 1.96875,3.8125 -3.3125,3.4375 c -1.83063,1.88873 -4.14069,3.4375 -5.125,3.4375 -2.9481,0 -7.11419,-7.40279 -7.625,-13.5625 -0.37651,-4.54022 -0.3405,-5.29793 1.1875,-5.40625 z m 190.84375,9.3125 c 0.0961,-0.006 0.18315,-0.0207 0.25,0 1.48791,0.45974 2.32764,4.47525 2.4375,11.75 0.16504,10.92886 -3.20177,17.52805 -11.3125,22.28125 -2.4569,1.43985 -5.41015,2.625 -6.5625,2.625 -1.86956,0 -1.65412,-0.56468 2,-5.1875 6.88068,-8.70471 8.13027,-11.93608 7.8125,-20.46875 -0.25892,-6.95236 -0.0981,-7.65119 2.1875,-9.40625 1.18615,-0.9108 2.51462,-1.55309 3.1875,-1.59375 z m -35.03125,1.5 8.1875,4.15625 8.1875,4.15625 4.21875,-1.6875 c 2.31531,-0.9264 4.89263,-1.41076 5.71875,-1.09375 1.77283,0.6803 1.99589,6.31418 0.46875,11.8125 -2.51437,9.05278 -20.50289,28.36037 -29.5625,31.75 -2.99,1.1187 -7.13069,2.23288 -9.1875,2.46875 -5.13513,0.58889 -16.22271,-1.172 -19.0625,-3.03125 -3.01105,-1.97138 -9.26178,-15.12605 -9.90625,-20.84375 -0.39996,-3.54848 -0.001,-5.3095 2.125,-8.9375 1.45569,-2.48394 4.09976,-5.59486 5.875,-6.90625 3.98494,-2.94373 13.57754,-6.6986 24.59375,-9.625 l 8.34375,-2.21875 z"
       id="path3964"
       inkscape:connector-curvature="0" />
  </g>
</svg>
